<?xml version="1.0" encoding="iso-8859-1"?>
<!-- Generator: Adobe Illustrator 21.0.0, SVG Export Plug-In . SVG Version: 6.00 Build 0)  -->
<svg
    xmlns="http://www.w3.org/2000/svg"
    xmlns:xlink="http://www.w3.org/1999/xlink" version="1.1" id="Capa_1" x="0px" y="0px" viewBox="0 0 512 512" style="enable-background:new 0 0 512 512;" xml:space="preserve" width="512" height="512">
    <path d="M256,0C115.04,0,0,115.05,0,256c0,140.96,115.05,256,256,256c140.96,0,256-115.05,256-256C512,115.04,396.95,0,256,0z   M429.64,111.51c31.96,38.34,51.47,87.39,52.31,140.89c-40.06-9.37-84.55-10-129.86-1.74c-11.79,2.15-23.58,4.88-35.3,8.16  c-3.9-10.61-8.04-21.13-12.44-31.55c-4.49-10.63-9.23-21.08-14.19-31.38C344.15,175.27,402.65,144.57,429.64,111.51z M256,30  c58.82,0,112.45,22.59,152.7,59.54C393,110.95,348.26,142.12,276.48,169c-25.06-46.66-55.11-89.54-89.83-128.1  C208.51,33.83,231.82,30,256,30z M156.95,52.9c35.41,37.93,65.87,80.29,90.96,126.05c-74.68,24.17-150.29,34.03-212.46,27.66  C50.59,138.96,96.14,82.67,156.95,52.9z M30,256c0-6.64,0.31-13.21,0.87-19.7c13.72,1.45,28.03,2.18,42.82,2.18  c58.33,0,123.86-11.22,188.21-32.53c9.82,20.1,18.65,40.78,26.44,61.97c-25.09,9.02-49.51,20.49-72.44,34.14  c-56.22,33.47-97.35,76.53-114.41,118.71C57.52,379.51,30,320.91,30,256z M256,482c-48.29,0-93.09-15.23-129.86-41.14  c11.4-38.52,49.96-80.19,105.11-113.02c19.43-11.58,42.15-22.49,66.88-31.36c17.53,55.1,28.27,113.26,31.68,173.13  C306.67,477.63,281.84,482,256,482z M359.07,457.1c-4.16-58.32-15.02-115.1-32.45-169.64c48.6-13.36,102.58-17.84,153.77-4.56  C471.33,358.91,424.41,423.47,359.07,457.1z" fill="#4a5568"/>
</svg>
